<mxfile host="app.diagrams.net" modified="2023-07-09T12:38:31.486Z" agent="Mozilla/5.0 (Macintosh; Intel Mac OS X 10_15_7) AppleWebKit/537.36 (KHTML, like Gecko) Chrome/114.0.0.0 Safari/537.36" etag="lgp4JcFTZG4AteDung87" version="21.5.2" type="google">
  <diagram name="Page-1" id="7lOYam8AWCxRMxBZ-8En">
    <mxGraphModel grid="1" page="1" gridSize="10" guides="1" tooltips="1" connect="1" arrows="1" fold="1" pageScale="1" pageWidth="850" pageHeight="1100" math="0" shadow="0">
      <root>
        <mxCell id="0" />
        <mxCell id="1" parent="0" />
        <mxCell id="LvAaSZ-Zg50VipKB94Ty-1" value="" style="rounded=1;whiteSpace=wrap;html=1;fillColor=none;strokeColor=#455964;strokeWidth=3;dashed=1;" vertex="1" parent="1">
          <mxGeometry x="80" y="75" width="800" height="690" as="geometry" />
        </mxCell>
        <mxCell id="mP1LscIuJFCwR1YAqAkv-32" style="edgeStyle=orthogonalEdgeStyle;rounded=0;orthogonalLoop=1;jettySize=auto;html=1;exitX=1;exitY=0.75;exitDx=0;exitDy=0;entryX=0;entryY=0.5;entryDx=0;entryDy=0;curved=1;strokeColor=#455964;strokeWidth=3;" edge="1" parent="1" source="mP1LscIuJFCwR1YAqAkv-3" target="mP1LscIuJFCwR1YAqAkv-8">
          <mxGeometry relative="1" as="geometry" />
        </mxCell>
        <mxCell id="mP1LscIuJFCwR1YAqAkv-37" style="edgeStyle=orthogonalEdgeStyle;rounded=0;orthogonalLoop=1;jettySize=auto;html=1;exitX=1;exitY=0.25;exitDx=0;exitDy=0;entryX=0;entryY=0.5;entryDx=0;entryDy=0;strokeColor=#455964;curved=1;strokeWidth=3;" edge="1" parent="1" source="mP1LscIuJFCwR1YAqAkv-3" target="mP1LscIuJFCwR1YAqAkv-34">
          <mxGeometry relative="1" as="geometry" />
        </mxCell>
        <mxCell id="mP1LscIuJFCwR1YAqAkv-3" value="" style="shape=image;html=1;verticalAlign=top;verticalLabelPosition=bottom;labelBackgroundColor=#ffffff;imageAspect=0;aspect=fixed;image=https://cdn4.iconfinder.com/data/icons/social-media-and-logos-11/32/Logo_Github-128.png" vertex="1" parent="1">
          <mxGeometry x="-40" y="380" width="80" height="80" as="geometry" />
        </mxCell>
        <mxCell id="mP1LscIuJFCwR1YAqAkv-6" style="edgeStyle=orthogonalEdgeStyle;rounded=0;orthogonalLoop=1;jettySize=auto;html=1;exitX=0.5;exitY=0;exitDx=0;exitDy=0;entryX=0.5;entryY=1;entryDx=0;entryDy=0;curved=1;strokeWidth=3;strokeColor=#455964;" edge="1" parent="1" source="mP1LscIuJFCwR1YAqAkv-3" target="mP1LscIuJFCwR1YAqAkv-3">
          <mxGeometry relative="1" as="geometry">
            <Array as="points">
              <mxPoint y="320" />
              <mxPoint x="-80" y="320" />
              <mxPoint x="-80" y="520" />
              <mxPoint y="520" />
            </Array>
          </mxGeometry>
        </mxCell>
        <mxCell id="mP1LscIuJFCwR1YAqAkv-9" value="" style="group" connectable="0" vertex="1" parent="1">
          <mxGeometry x="200" y="520" width="80" height="80" as="geometry" />
        </mxCell>
        <mxCell id="mP1LscIuJFCwR1YAqAkv-7" value="" style="ellipse;whiteSpace=wrap;html=1;aspect=fixed;strokeColor=#455964;strokeWidth=3;fillColor=none;" vertex="1" parent="mP1LscIuJFCwR1YAqAkv-9">
          <mxGeometry width="80" height="80" as="geometry" />
        </mxCell>
        <mxCell id="mP1LscIuJFCwR1YAqAkv-8" value="" style="shape=image;verticalLabelPosition=bottom;labelBackgroundColor=default;verticalAlign=top;aspect=fixed;imageAspect=0;image=https://www.datocms-assets.com/58478/1638283616-packer.svg?auto=format&amp;fit=max&amp;w=1200;" vertex="1" parent="mP1LscIuJFCwR1YAqAkv-9">
          <mxGeometry width="80" height="80" as="geometry" />
        </mxCell>
        <mxCell id="mP1LscIuJFCwR1YAqAkv-44" style="edgeStyle=orthogonalEdgeStyle;rounded=0;orthogonalLoop=1;jettySize=auto;html=1;exitX=0;exitY=0.75;exitDx=0;exitDy=0;entryX=1;entryY=0.75;entryDx=0;entryDy=0;strokeWidth=3;curved=1;strokeColor=#455964;" edge="1" parent="mP1LscIuJFCwR1YAqAkv-9" source="mP1LscIuJFCwR1YAqAkv-8" target="mP1LscIuJFCwR1YAqAkv-8">
          <mxGeometry relative="1" as="geometry">
            <Array as="points">
              <mxPoint x="-40" y="60" />
              <mxPoint x="-40" y="120" />
              <mxPoint x="120" y="120" />
              <mxPoint x="120" y="60" />
            </Array>
          </mxGeometry>
        </mxCell>
        <mxCell id="mP1LscIuJFCwR1YAqAkv-17" value="" style="group" connectable="0" vertex="1" parent="1">
          <mxGeometry x="440" y="520" width="80" height="80" as="geometry" />
        </mxCell>
        <mxCell id="mP1LscIuJFCwR1YAqAkv-13" value="" style="ellipse;whiteSpace=wrap;html=1;aspect=fixed;strokeWidth=3;fillColor=none;strokeColor=#455964;" vertex="1" parent="mP1LscIuJFCwR1YAqAkv-17">
          <mxGeometry width="80" height="80" as="geometry" />
        </mxCell>
        <mxCell id="mP1LscIuJFCwR1YAqAkv-14" value="" style="shape=image;verticalLabelPosition=bottom;labelBackgroundColor=default;verticalAlign=top;aspect=fixed;imageAspect=0;image=https://www.msp360.com/resources/wp-content/uploads/2017/10/Amazon-EBS-Snapshot.png;" vertex="1" parent="mP1LscIuJFCwR1YAqAkv-17">
          <mxGeometry x="5" y="5" width="70" height="70" as="geometry" />
        </mxCell>
        <mxCell id="mP1LscIuJFCwR1YAqAkv-18" value="" style="group" connectable="0" vertex="1" parent="1">
          <mxGeometry x="680" y="520" width="80" height="80" as="geometry" />
        </mxCell>
        <mxCell id="mP1LscIuJFCwR1YAqAkv-15" value="" style="ellipse;whiteSpace=wrap;html=1;aspect=fixed;strokeColor=#455964;strokeWidth=3;fillColor=none;" vertex="1" parent="mP1LscIuJFCwR1YAqAkv-18">
          <mxGeometry width="80" height="80" as="geometry" />
        </mxCell>
        <mxCell id="mP1LscIuJFCwR1YAqAkv-16" value="" style="shape=image;verticalLabelPosition=bottom;labelBackgroundColor=default;verticalAlign=top;aspect=fixed;imageAspect=0;image=https://upload.wikimedia.org/wikipedia/commons/thumb/6/6b/AWS_Simple_Icons_Compute_Amazon_EC2_AMI.svg/1200px-AWS_Simple_Icons_Compute_Amazon_EC2_AMI.svg.png;" vertex="1" parent="mP1LscIuJFCwR1YAqAkv-18">
          <mxGeometry x="12.5" y="12.5" width="55" height="55" as="geometry" />
        </mxCell>
        <mxCell id="mP1LscIuJFCwR1YAqAkv-21" value="" style="group" connectable="0" vertex="1" parent="1">
          <mxGeometry x="680" y="240" width="80" height="80" as="geometry" />
        </mxCell>
        <mxCell id="mP1LscIuJFCwR1YAqAkv-19" value="" style="ellipse;whiteSpace=wrap;html=1;aspect=fixed;strokeColor=#455964;strokeWidth=3;fillColor=none;" vertex="1" parent="mP1LscIuJFCwR1YAqAkv-21">
          <mxGeometry width="80" height="80" as="geometry" />
        </mxCell>
        <mxCell id="mP1LscIuJFCwR1YAqAkv-20" value="" style="shape=image;verticalLabelPosition=bottom;labelBackgroundColor=default;verticalAlign=top;aspect=fixed;imageAspect=0;image=https://upload.wikimedia.org/wikipedia/commons/thumb/b/b9/AWS_Simple_Icons_Compute_Amazon_EC2_Instances.svg/1024px-AWS_Simple_Icons_Compute_Amazon_EC2_Instances.svg.png;" vertex="1" parent="mP1LscIuJFCwR1YAqAkv-21">
          <mxGeometry x="9" y="9" width="62" height="62" as="geometry" />
        </mxCell>
        <mxCell id="mP1LscIuJFCwR1YAqAkv-23" style="edgeStyle=orthogonalEdgeStyle;rounded=0;orthogonalLoop=1;jettySize=auto;html=1;exitX=1;exitY=0.5;exitDx=0;exitDy=0;entryX=0;entryY=0.5;entryDx=0;entryDy=0;strokeWidth=3;strokeColor=#F79A19;" edge="1" parent="1" source="mP1LscIuJFCwR1YAqAkv-7" target="mP1LscIuJFCwR1YAqAkv-13">
          <mxGeometry relative="1" as="geometry" />
        </mxCell>
        <mxCell id="mP1LscIuJFCwR1YAqAkv-25" style="edgeStyle=orthogonalEdgeStyle;rounded=0;orthogonalLoop=1;jettySize=auto;html=1;exitX=1;exitY=0.5;exitDx=0;exitDy=0;entryX=0;entryY=0.5;entryDx=0;entryDy=0;strokeWidth=3;strokeColor=#F79A19;" edge="1" parent="1">
          <mxGeometry relative="1" as="geometry">
            <mxPoint x="520" y="559.52" as="sourcePoint" />
            <mxPoint x="680" y="559.52" as="targetPoint" />
          </mxGeometry>
        </mxCell>
        <mxCell id="mP1LscIuJFCwR1YAqAkv-26" value="&lt;b&gt;&lt;font color=&quot;#f79a19&quot; style=&quot;font-size: 20px;&quot;&gt;Create&lt;/font&gt;&lt;/b&gt;" style="text;html=1;strokeColor=none;fillColor=none;align=center;verticalAlign=middle;whiteSpace=wrap;rounded=0;fontFamily=Ubuntu;" vertex="1" parent="1">
          <mxGeometry x="330" y="520" width="60" height="30" as="geometry" />
        </mxCell>
        <mxCell id="mP1LscIuJFCwR1YAqAkv-27" value="&lt;b&gt;&lt;font color=&quot;#f79a19&quot; style=&quot;font-size: 20px;&quot;&gt;Register&lt;/font&gt;&lt;/b&gt;" style="text;html=1;strokeColor=none;fillColor=none;align=center;verticalAlign=middle;whiteSpace=wrap;rounded=0;fontFamily=Ubuntu;" vertex="1" parent="1">
          <mxGeometry x="570" y="520" width="60" height="30" as="geometry" />
        </mxCell>
        <mxCell id="mP1LscIuJFCwR1YAqAkv-30" style="edgeStyle=orthogonalEdgeStyle;rounded=0;orthogonalLoop=1;jettySize=auto;html=1;strokeWidth=3;strokeColor=#455964;exitX=0.5;exitY=1;exitDx=0;exitDy=0;" edge="1" parent="1" source="mP1LscIuJFCwR1YAqAkv-15">
          <mxGeometry relative="1" as="geometry">
            <mxPoint x="640" y="730" as="sourcePoint" />
            <mxPoint x="720" y="680" as="targetPoint" />
            <Array as="points">
              <mxPoint x="720" y="620" />
              <mxPoint x="720" y="620" />
            </Array>
          </mxGeometry>
        </mxCell>
        <mxCell id="mP1LscIuJFCwR1YAqAkv-31" value="&lt;b&gt;&lt;font color=&quot;#f79a19&quot; style=&quot;font-size: 20px;&quot;&gt;Deregister&lt;/font&gt;&lt;/b&gt;" style="text;html=1;strokeColor=none;fillColor=none;align=center;verticalAlign=middle;whiteSpace=wrap;rounded=0;fontFamily=Ubuntu;" vertex="1" parent="1">
          <mxGeometry x="690" y="690" width="60" height="30" as="geometry" />
        </mxCell>
        <mxCell id="mP1LscIuJFCwR1YAqAkv-35" value="&lt;span style=&quot;font-size: 20px;&quot;&gt;&lt;b style=&quot;&quot;&gt;&lt;font color=&quot;#455964&quot;&gt;PR/&lt;/font&gt;&lt;font color=&quot;#f79a19&quot;&gt;master&lt;/font&gt;&lt;font color=&quot;#455964&quot;&gt; commit&lt;/font&gt;&lt;br&gt;&lt;/b&gt;&lt;/span&gt;" style="text;html=1;strokeColor=none;fillColor=none;align=center;verticalAlign=middle;whiteSpace=wrap;rounded=0;fontFamily=Ubuntu;" vertex="1" parent="1">
          <mxGeometry x="-170" y="405" width="60" height="30" as="geometry" />
        </mxCell>
        <mxCell id="mP1LscIuJFCwR1YAqAkv-38" value="" style="group" connectable="0" vertex="1" parent="1">
          <mxGeometry x="200" y="240" width="80" height="80" as="geometry" />
        </mxCell>
        <mxCell id="mP1LscIuJFCwR1YAqAkv-46" value="" style="group" connectable="0" vertex="1" parent="mP1LscIuJFCwR1YAqAkv-38">
          <mxGeometry width="80" height="80" as="geometry" />
        </mxCell>
        <mxCell id="mP1LscIuJFCwR1YAqAkv-34" value="" style="ellipse;whiteSpace=wrap;html=1;aspect=fixed;strokeColor=#455964;strokeWidth=3;fillColor=none;" vertex="1" parent="mP1LscIuJFCwR1YAqAkv-46">
          <mxGeometry width="80" height="80" as="geometry" />
        </mxCell>
        <mxCell id="mP1LscIuJFCwR1YAqAkv-36" value="" style="shape=image;verticalLabelPosition=bottom;labelBackgroundColor=default;verticalAlign=top;aspect=fixed;imageAspect=0;image=https://dustindortch.files.wordpress.com/2020/08/terraform-logo.png?w=640;" vertex="1" parent="mP1LscIuJFCwR1YAqAkv-46">
          <mxGeometry x="5" y="5" width="75" height="75" as="geometry" />
        </mxCell>
        <mxCell id="mP1LscIuJFCwR1YAqAkv-48" style="edgeStyle=orthogonalEdgeStyle;rounded=0;orthogonalLoop=1;jettySize=auto;html=1;exitX=0;exitY=0.25;exitDx=0;exitDy=0;entryX=1;entryY=0.25;entryDx=0;entryDy=0;curved=1;strokeWidth=3;strokeColor=#455964;" edge="1" parent="mP1LscIuJFCwR1YAqAkv-46" source="mP1LscIuJFCwR1YAqAkv-36" target="mP1LscIuJFCwR1YAqAkv-36">
          <mxGeometry relative="1" as="geometry">
            <Array as="points">
              <mxPoint x="-40" y="24" />
              <mxPoint x="-40" y="-40" />
              <mxPoint x="120" y="-40" />
              <mxPoint x="120" y="24" />
            </Array>
          </mxGeometry>
        </mxCell>
        <mxCell id="mP1LscIuJFCwR1YAqAkv-39" style="edgeStyle=orthogonalEdgeStyle;rounded=0;orthogonalLoop=1;jettySize=auto;html=1;entryX=0;entryY=0.5;entryDx=0;entryDy=0;strokeColor=#F79A19;strokeWidth=3;exitX=1;exitY=0.5;exitDx=0;exitDy=0;" edge="1" parent="1" source="mP1LscIuJFCwR1YAqAkv-34" target="mP1LscIuJFCwR1YAqAkv-19">
          <mxGeometry relative="1" as="geometry">
            <mxPoint x="330" y="340" as="sourcePoint" />
          </mxGeometry>
        </mxCell>
        <mxCell id="mP1LscIuJFCwR1YAqAkv-40" value="&lt;b&gt;&lt;font style=&quot;font-size: 20px;&quot;&gt;&lt;font color=&quot;#f79a19&quot;&gt;Launch&lt;/font&gt;&lt;br&gt;&lt;/font&gt;&lt;/b&gt;" style="text;html=1;strokeColor=none;fillColor=none;align=center;verticalAlign=middle;whiteSpace=wrap;rounded=0;fontFamily=Ubuntu;" vertex="1" parent="1">
          <mxGeometry x="450" y="240" width="60" height="30" as="geometry" />
        </mxCell>
        <mxCell id="mP1LscIuJFCwR1YAqAkv-41" style="edgeStyle=orthogonalEdgeStyle;rounded=0;orthogonalLoop=1;jettySize=auto;html=1;entryX=0.5;entryY=1;entryDx=0;entryDy=0;curved=1;strokeColor=#F79A19;strokeWidth=3;" edge="1" parent="1" source="mP1LscIuJFCwR1YAqAkv-15" target="mP1LscIuJFCwR1YAqAkv-34">
          <mxGeometry relative="1" as="geometry">
            <Array as="points">
              <mxPoint x="720" y="400" />
              <mxPoint x="240" y="400" />
            </Array>
          </mxGeometry>
        </mxCell>
        <mxCell id="mP1LscIuJFCwR1YAqAkv-42" value="&lt;b&gt;&lt;font style=&quot;font-size: 20px;&quot;&gt;&lt;font color=&quot;#f79a19&quot;&gt;Fetch&lt;/font&gt;&lt;br&gt;&lt;/font&gt;&lt;/b&gt;" style="text;html=1;strokeColor=none;fillColor=none;align=center;verticalAlign=middle;whiteSpace=wrap;rounded=0;fontFamily=Ubuntu;" vertex="1" parent="1">
          <mxGeometry x="450" y="360" width="60" height="30" as="geometry" />
        </mxCell>
        <mxCell id="mP1LscIuJFCwR1YAqAkv-49" value="&lt;b&gt;&lt;font color=&quot;#455964&quot; style=&quot;font-size: 20px;&quot;&gt;Validate&lt;/font&gt;&lt;/b&gt;" style="text;html=1;strokeColor=none;fillColor=none;align=center;verticalAlign=middle;whiteSpace=wrap;rounded=0;fontFamily=Ubuntu;" vertex="1" parent="1">
          <mxGeometry x="210" y="650" width="60" height="30" as="geometry" />
        </mxCell>
        <mxCell id="mP1LscIuJFCwR1YAqAkv-51" value="&lt;b&gt;&lt;font color=&quot;#455964&quot; style=&quot;font-size: 20px;&quot;&gt;Validate&lt;/font&gt;&lt;/b&gt;" style="text;html=1;strokeColor=none;fillColor=none;align=center;verticalAlign=middle;whiteSpace=wrap;rounded=0;fontFamily=Ubuntu;" vertex="1" parent="1">
          <mxGeometry x="210" y="160" width="60" height="30" as="geometry" />
        </mxCell>
        <mxCell id="mP1LscIuJFCwR1YAqAkv-53" value="&lt;b&gt;&lt;font color=&quot;#455964&quot; style=&quot;font-size: 20px;&quot;&gt;HashiCorp AWS&lt;/font&gt;&lt;/b&gt;" style="text;html=1;strokeColor=none;fillColor=none;align=center;verticalAlign=middle;whiteSpace=wrap;rounded=0;fontFamily=Ubuntu;" vertex="1" parent="1">
          <mxGeometry x="355" y="90" width="250" height="30" as="geometry" />
        </mxCell>
        <mxCell id="LvAaSZ-Zg50VipKB94Ty-5" value="&lt;b&gt;&lt;font style=&quot;font-size: 20px;&quot;&gt;&lt;font color=&quot;#f79a19&quot;&gt;EC2 Instances&lt;/font&gt;&lt;br&gt;&lt;/font&gt;&lt;/b&gt;" style="text;html=1;strokeColor=none;fillColor=none;align=center;verticalAlign=middle;whiteSpace=wrap;rounded=0;fontFamily=Ubuntu;" vertex="1" parent="1">
          <mxGeometry x="790" y="265" width="60" height="30" as="geometry" />
        </mxCell>
        <mxCell id="LvAaSZ-Zg50VipKB94Ty-6" value="&lt;b&gt;&lt;font style=&quot;font-size: 20px;&quot;&gt;&lt;font color=&quot;#f79a19&quot;&gt;AMI Image&lt;/font&gt;&lt;br&gt;&lt;/font&gt;&lt;/b&gt;" style="text;html=1;strokeColor=none;fillColor=none;align=center;verticalAlign=middle;whiteSpace=wrap;rounded=0;fontFamily=Ubuntu;" vertex="1" parent="1">
          <mxGeometry x="780" y="545" width="60" height="30" as="geometry" />
        </mxCell>
        <mxCell id="LvAaSZ-Zg50VipKB94Ty-12" style="edgeStyle=orthogonalEdgeStyle;rounded=0;orthogonalLoop=1;jettySize=auto;html=1;strokeWidth=3;strokeColor=#455964;" edge="1" parent="1">
          <mxGeometry relative="1" as="geometry">
            <mxPoint x="80" y="840" as="sourcePoint" />
            <mxPoint x="640" y="840" as="targetPoint" />
            <Array as="points">
              <mxPoint x="320" y="840" />
              <mxPoint x="320" y="840" />
            </Array>
          </mxGeometry>
        </mxCell>
        <mxCell id="LvAaSZ-Zg50VipKB94Ty-14" value="&lt;font style=&quot;font-size: 20px;&quot; face=&quot;Ubuntu&quot; color=&quot;#455964&quot;&gt;&lt;b&gt;Code&lt;/b&gt;&lt;/font&gt;" style="ellipse;whiteSpace=wrap;html=1;aspect=fixed;strokeColor=#455964;strokeWidth=3;fillColor=#80D8FF;" vertex="1" parent="1">
          <mxGeometry x="-40" y="800" width="80" height="80" as="geometry" />
        </mxCell>
        <mxCell id="LvAaSZ-Zg50VipKB94Ty-15" value="&lt;font color=&quot;#ffffff&quot; style=&quot;font-size: 20px;&quot; face=&quot;Ubuntu&quot;&gt;&lt;b style=&quot;&quot;&gt;App&lt;/b&gt;&lt;/font&gt;" style="ellipse;whiteSpace=wrap;html=1;aspect=fixed;strokeColor=#455964;strokeWidth=3;fillColor=#FF9A01;" vertex="1" parent="1">
          <mxGeometry x="680" y="800" width="80" height="80" as="geometry" />
        </mxCell>
      </root>
    </mxGraphModel>
  </diagram>
</mxfile>
